<?xml version="1.0" standalone="no"?>
<!DOCTYPE svg PUBLIC "-//W3C//DTD SVG 20010904//EN"
 "http://www.w3.org/TR/2001/REC-SVG-20010904/DTD/svg10.dtd">
<svg version="1.0" xmlns="http://www.w3.org/2000/svg"
 width="700.000000pt" height="700.000000pt" viewBox="0 0 700.000000 700.000000"
 preserveAspectRatio="xMidYMid meet">
<metadata>
Created by potrace 1.11, written by Peter Selinger 2001-2013
</metadata>
<g transform="translate(0.000000,700.000000) scale(0.100000,-0.100000)"
fill="#000000" stroke="none">
<path d="M3356 6990 c-453 -72 -797 -400 -880 -840 -14 -70 -16 -196 -16 -846
l0 -764 119 0 119 0 11 28 c6 15 44 119 85 231 42 113 85 214 97 227 26 28 82
33 114 10 11 -8 54 -82 95 -165 41 -82 77 -148 80 -145 3 3 50 325 106 716
100 708 101 711 128 735 51 43 128 20 146 -45 5 -20 50 -478 100 -1016 49
-539 91 -980 92 -982 2 -1 41 180 86 404 46 223 88 414 93 425 6 10 26 25 45
33 30 12 39 12 69 0 31 -13 44 -34 145 -235 l110 -221 125 0 126 0 -3 788 -3
787 -27 97 c-126 460 -512 769 -978 783 -69 2 -152 0 -184 -5z"/>
<path d="M3451 5280 c-14 -138 -132 -911 -142 -927 -28 -46 -107 -54 -142 -15
-8 9 -56 100 -107 201 -50 101 -93 181 -95 179 -2 -2 -31 -78 -64 -168 -38
-103 -68 -172 -82 -182 -18 -16 -44 -18 -191 -18 l-169 0 3 -467 c4 -443 5
-472 25 -545 52 -186 147 -350 275 -475 100 -99 166 -146 283 -203 272 -133
569 -143 854 -29 302 121 531 382 619 708 26 96 26 98 30 554 l3 457 -168 0
c-128 0 -173 3 -188 14 -11 8 -47 68 -80 135 -32 67 -62 121 -65 121 -3 0 -59
-264 -125 -587 -133 -654 -130 -643 -206 -643 -44 0 -85 31 -93 72 -3 12 -41
423 -86 913 -44 490 -82 897 -84 905 -3 13 -4 13 -5 0z"/>
<path d="M1650 3947 c-66 -15 -114 -46 -138 -90 -15 -29 -17 -67 -17 -347 0
-347 9 -443 57 -634 123 -491 448 -926 893 -1195 181 -110 439 -209 653 -252
l112 -22 0 -389 0 -388 -297 0 c-186 0 -313 -4 -338 -11 -52 -15 -100 -65
-115 -119 -7 -27 -10 -102 -8 -204 4 -181 10 -204 75 -253 l36 -28 911 -3
c501 -1 926 0 944 3 40 7 101 59 118 102 10 23 14 81 14 200 -1 215 -16 257
-113 298 -30 12 -90 15 -342 15 l-305 0 0 389 0 389 67 11 c442 76 875 316
1168 649 263 297 426 659 475 1052 16 131 13 683 -4 723 -17 42 -66 83 -114
97 -64 18 -193 23 -269 10 -77 -12 -123 -37 -157 -83 -20 -27 -21 -44 -27
-360 -5 -288 -9 -346 -28 -434 -119 -563 -581 -993 -1166 -1088 -119 -20 -342
-19 -469 1 -518 82 -960 452 -1121 937 -55 168 -65 254 -65 576 0 175 -4 302
-11 326 -25 91 -93 126 -254 131 -65 2 -132 -1 -165 -9z"/>
</g>
</svg>
