<svg xmlns="http://www.w3.org/2000/svg" width="415" height="143" viewBox="0 0 415 143">
  <g fill="none" fill-rule="evenodd">
    <rect width="415" height="143" fill="#FFF" rx="8"/>
    <g transform="translate(16 16)">
      <g transform="translate(15.313)">
        <rect width="33.361" height="70.823" fill="#F03348" rx="16.68" transform="rotate(-180 16.68 35.412)"/>
        <polyline stroke="#FFF" stroke-linejoin="round" stroke-width="2.953" points="0 40.735 4.893 40.735 7.907 32.478 12.383 41.334 16.218 14.219 20.087 56.057 24.752 33.23 28.536 40.735 33.361 40.735"/>
      </g>
      <path fill="#584A96" d="M0,58.3649409 L0,51.4510886 C0,48.9103986 2.12012414,48.4005257 4.68894262,48.4005257 C7.25738957,48.4005257 9.30258564,48.9103986 9.30258564,51.4510886 L9.30258564,58.3649409 C9.30258564,70.3745066 19.481631,80.1447516 31.9939394,80.1447516 C44.5066193,80.1447516 54.6849216,70.3745066 54.6849216,58.3649409 L54.6849216,51.4510886 C54.6849216,48.9103986 57.0111191,48.4005257 59.336586,48.4005257 C61.6620529,48.4005257 63.9871357,48.9103986 63.9871357,51.4510886 L63.9871357,58.3649409 C63.9871357,75.4474336 49.6353393,89.3460702 31.9939394,89.3460702 C14.352911,89.3460702 0,75.4474336 0,58.3649409 Z"/>
      <g fill="#584A96" transform="translate(15.313 88.871)">
        <rect width="9.297" height="12.579" x="12.032"/>
        <rect width="33.361" height="9.844" y="12.086" rx="2.734"/>
      </g>
    </g>
    <path fill="#584A96" fill-rule="nonzero" d="M116.705882,100 C117.281046,100 117.764706,99.8166667 118.156863,99.45 C118.54902,99.0833333 118.745098,98.6119048 118.745098,98.0357143 L118.745098,98.0357143 L118.745098,78.7857143 L137.254902,78.7857143 L137.254902,98.0357143 C137.254902,98.6119048 137.45098,99.0833333 137.843137,99.45 C138.235294,99.8166667 138.718954,100 139.294118,100 L139.294118,100 L149.960784,100 C150.535948,100 151.019608,99.8166667 151.411765,99.45 C151.803922,99.0833333 152,98.6119048 152,98.0357143 L152,98.0357143 L152,47.0428571 C152,46.4666667 151.803922,45.9821429 151.411765,45.5892857 C151.019608,45.1964286 150.535948,45 149.960784,45 L149.960784,45 L139.294118,45 C138.718954,45 138.235294,45.1964286 137.843137,45.5892857 C137.45098,45.9821429 137.254902,46.4666667 137.254902,47.0428571 L137.254902,47.0428571 L137.254902,65.6642857 L118.745098,65.6642857 L118.745098,47.0428571 C118.745098,46.4666667 118.54902,45.9821429 118.156863,45.5892857 C117.764706,45.1964286 117.281046,45 116.705882,45 L116.705882,45 L105.960784,45 C105.385621,45 104.915033,45.1964286 104.54902,45.5892857 C104.183007,45.9821429 104,46.4666667 104,47.0428571 L104,47.0428571 L104,98.0357143 C104,98.6119048 104.183007,99.0833333 104.54902,99.45 C104.915033,99.8166667 105.385621,100 105.960784,100 L105.960784,100 L116.705882,100 Z M180.538899,101 C184.532574,101 187.994624,100.33642 190.925047,99.0092593 C193.855471,97.6820988 196.085705,96.0895062 197.61575,94.2314815 C199.145794,92.3734568 199.910816,90.754321 199.910816,89.3740741 C199.910816,88.9493827 199.742252,88.5910494 199.405123,88.2990741 C199.067995,88.0070988 198.666034,87.8611111 198.199241,87.8611111 L198.199241,87.8611111 L188.00759,87.8611111 C187.385199,87.8611111 186.931373,87.9274691 186.64611,88.0601852 C186.360848,88.1929012 185.98482,88.5246914 185.518027,89.0555556 C184.84377,89.8518519 184.130614,90.5021605 183.378558,91.0064815 C182.626502,91.5108025 181.628083,91.762963 180.383302,91.762963 C178.464263,91.762963 176.986085,91.0330247 175.948767,89.5731481 C174.911448,88.1132716 174.366856,86.1888889 174.314991,83.8 L174.314991,83.8 L174.314991,83.3222222 L198.97723,83.3222222 C199.547755,83.3222222 200.027514,83.1231481 200.416509,82.725 C200.805503,82.3268519 201,81.8358025 201,81.2518519 L201,81.2518519 L201,79.2611111 C201,75.1734568 200.234978,71.5237654 198.704934,68.312037 C197.174889,65.1003086 194.866856,62.5787037 191.780835,60.7472222 C188.694813,58.9157407 184.921569,58 180.461101,58 C174.289058,58 169.387729,59.7783951 165.757116,63.3351852 C162.126502,66.8919753 160.207464,71.8290123 160,78.1462963 L160,78.1462963 L160,80.6148148 C160.103732,87.2506173 161.970904,92.3070988 165.601518,95.7842593 C169.232132,99.2614198 174.211259,101 180.538899,101 Z M187,75 L175,75 L175,74.8446602 C175,72.3592233 175.515723,70.4304207 176.54717,69.0582524 C177.578616,67.6860841 179.050314,67 180.962264,67 C182.874214,67 184.358491,67.6860841 185.415094,69.0582524 C186.471698,70.4304207 187,72.3592233 187,74.8446602 L187,74.8446602 L187,75 Z M220.651163,101 C223.44186,101 225.844961,100.482407 227.860465,99.4472222 C229.875969,98.412037 231.452196,97.0716049 232.589147,95.4259259 L232.589147,95.4259259 L232.589147,98.212963 C232.589147,98.7438272 232.782946,99.2083333 233.170543,99.6064815 C233.55814,100.00463 234.010336,100.203704 234.527132,100.203704 L234.527132,100.203704 L244.062016,100.203704 C244.630491,100.203704 245.095607,100.00463 245.457364,99.6064815 C245.819121,99.2083333 246,98.7438272 246,98.212963 L246,98.212963 L246,74.0851852 C246,69.1481481 244.449612,65.2330247 241.348837,62.3398148 C238.248062,59.4466049 233.49354,58 227.085271,58 C223.054264,58 219.669251,58.637037 216.930233,59.9111111 C214.191214,61.1851852 212.149871,62.7114198 210.806202,64.4898148 C209.462532,66.2682099 208.764858,67.8740741 208.713178,69.3074074 C208.661499,69.7851852 208.803618,70.1966049 209.139535,70.5416667 C209.475452,70.8867284 209.901809,71.0592593 210.418605,71.0592593 L210.418605,71.0592593 L219.410853,71.0592593 C219.72093,71.0592593 219.979328,70.8734568 220.186047,70.5018519 C220.702842,70.2364198 221.297158,69.8117284 221.968992,69.2277778 C222.847545,68.4845679 223.635659,67.9271605 224.333333,67.5555556 C225.031008,67.1839506 225.896641,66.9981481 226.930233,66.9981481 C228.790698,66.9981481 230.108527,67.4493827 230.883721,68.3518519 C231.658915,69.254321 232.046512,70.6876543 232.046512,72.6518519 L232.046512,72.6518519 L232.046512,73.6074074 L222.434109,75.1203704 C217.317829,75.9697531 213.299742,77.5225309 210.379845,79.7787037 C207.459948,82.0348765 206,84.9679012 206,88.5777778 C206,90.8604938 206.633075,92.9574074 207.899225,94.8685185 C209.165375,96.7796296 210.922481,98.279321 213.170543,99.3675926 C215.418605,100.455864 217.912145,101 220.651163,101 Z M224.293413,92 C222.788423,92 221.52994,91.6266667 220.517964,90.88 C219.505988,90.1333333 219,89.1466667 219,87.92 C219,85.5733333 221.179641,83.9733333 225.538922,83.12 L225.538922,83.12 L232,82 L232,82.96 C232,85.8933333 231.286427,88.1333333 229.859281,89.68 C228.432136,91.2266667 226.576846,92 224.293413,92 Z M266.415816,100 C266.995748,100 267.483418,99.8160256 267.878827,99.4480769 C268.274235,99.0801282 268.471939,98.6070513 268.471939,98.0288462 L268.471939,98.0288462 L268.471939,78.1596154 C268.471939,76.0570513 269.03869,74.4275641 270.172194,73.2711538 C271.305697,72.1147436 272.926871,71.5365385 275.035714,71.5365385 L275.035714,71.5365385 L283.022959,71.5365385 C283.602891,71.5365385 284.077381,71.3394231 284.446429,70.9451923 C284.815476,70.5509615 285,70.0910256 285,69.5653846 L285,69.5653846 L285,60.9711538 C285,60.3929487 284.815476,59.9198718 284.446429,59.5519231 C284.077381,59.1839744 283.602891,59 283.022959,59 L283.022959,59 L279.464286,59 C277.039116,59 274.83801,59.4336538 272.860969,60.3009615 C270.883929,61.1682692 269.157313,62.4166667 267.681122,64.0461538 L267.681122,64.0461538 L267.681122,61.05 C267.681122,60.4717949 267.483418,59.9855769 267.08801,59.5913462 C266.692602,59.1971154 266.204932,59 265.625,59 L265.625,59 L255.977041,59 C255.397109,59 254.922619,59.1971154 254.553571,59.5913462 C254.184524,59.9855769 254,60.4717949 254,61.05 L254,61.05 L254,98.0288462 C254,98.5544872 254.197704,99.0144231 254.593112,99.4086538 C254.98852,99.8028846 255.44983,100 255.977041,100 L255.977041,100 L266.415816,100 Z M303.810072,100 C304.379856,100 304.858993,99.8166667 305.247482,99.45 C305.635971,99.0833333 305.830216,98.6119048 305.830216,98.0357143 L305.830216,98.0357143 L305.830216,69.4357143 L314.143885,84.9928571 C314.920863,86.197619 315.827338,86.8 316.863309,86.8 L316.863309,86.8 L321.058993,86.8 C322.198561,86.8 323.105036,86.197619 323.778417,84.9928571 L323.778417,84.9928571 L332.169784,69.4357143 L332.169784,98.0357143 C332.169784,98.5595238 332.364029,99.0178571 332.752518,99.4107143 C333.141007,99.8035714 333.594245,100 334.11223,100 L334.11223,100 L343.979856,100 C344.54964,100 345.028777,99.8166667 345.417266,99.45 C345.805755,99.0833333 346,98.6119048 346,98.0357143 L346,98.0357143 L346,47.0428571 C346,46.4666667 345.805755,45.9821429 345.417266,45.5892857 C345.028777,45.1964286 344.54964,45 343.979856,45 L343.979856,45 L335.2,45 C333.905036,45 332.972662,45.5761905 332.402878,46.7285714 L332.402878,46.7285714 L318.961151,70.9285714 L305.597122,46.7285714 C305.027338,45.5761905 304.094964,45 302.8,45 L302.8,45 L294.020144,45 C293.45036,45 292.971223,45.1964286 292.582734,45.5892857 C292.194245,45.9821429 292,46.4666667 292,47.0428571 L292,47.0428571 L292,98.0357143 C292,98.6119048 292.194245,99.0833333 292.582734,99.45 C292.971223,99.8166667 293.45036,100 294.020144,100 L294.020144,100 L303.810072,100 Z M374.538899,101 C378.532574,101 381.994624,100.33642 384.925047,99.0092593 C387.855471,97.6820988 390.085705,96.0895062 391.61575,94.2314815 C393.145794,92.3734568 393.910816,90.754321 393.910816,89.3740741 C393.910816,88.9493827 393.742252,88.5910494 393.405123,88.2990741 C393.067995,88.0070988 392.666034,87.8611111 392.199241,87.8611111 L392.199241,87.8611111 L382.00759,87.8611111 C381.385199,87.8611111 380.931373,87.9274691 380.64611,88.0601852 C380.360848,88.1929012 379.98482,88.5246914 379.518027,89.0555556 C378.84377,89.8518519 378.130614,90.5021605 377.378558,91.0064815 C376.626502,91.5108025 375.628083,91.762963 374.383302,91.762963 C372.464263,91.762963 370.986085,91.0330247 369.948767,89.5731481 C368.911448,88.1132716 368.366856,86.1888889 368.314991,83.8 L368.314991,83.8 L368.314991,83.3222222 L392.97723,83.3222222 C393.547755,83.3222222 394.027514,83.1231481 394.416509,82.725 C394.805503,82.3268519 395,81.8358025 395,81.2518519 L395,81.2518519 L395,79.2611111 C395,75.1734568 394.234978,71.5237654 392.704934,68.312037 C391.174889,65.1003086 388.866856,62.5787037 385.780835,60.7472222 C382.694813,58.9157407 378.921569,58 374.461101,58 C368.289058,58 363.387729,59.7783951 359.757116,63.3351852 C356.126502,66.8919753 354.207464,71.8290123 354,78.1462963 L354,78.1462963 L354,80.6148148 C354.103732,87.2506173 355.970904,92.3070988 359.601518,95.7842593 C363.232132,99.2614198 368.211259,101 374.538899,101 Z M380,75 L368,75 L368,74.8446602 C368,72.3592233 368.515723,70.4304207 369.54717,69.0582524 C370.578616,67.6860841 372.050314,67 373.962264,67 C375.874214,67 377.358491,67.6860841 378.415094,69.0582524 C379.471698,70.4304207 380,72.3592233 380,74.8446602 L380,74.8446602 L380,75 Z"/>
  </g>
</svg>
